<svg xmlns:osb="http://www.openswatchbook.org/uri/2009/osb" xmlns="http://www.w3.org/2000/svg" xmlns:xlink="http://www.w3.org/1999/xlink" height="48" viewBox="0 0 48 48" width="48"><title>Template icons dark</title><defs><linearGradient id="g" osb:paint="solid"><stop offset="0" stop-opacity=".196"/></linearGradient><linearGradient id="f" osb:paint="solid"><stop offset="0" stop-color="#fff" stop-opacity=".208"/></linearGradient><linearGradient id="e" osb:paint="solid"><stop offset="0" stop-opacity=".078"/></linearGradient><linearGradient id="d" osb:paint="solid"><stop offset="0" stop-opacity=".157"/></linearGradient><linearGradient id="b"><stop offset="0" stop-color="#bf72f7"/><stop offset="1" stop-color="#ae37d5"/></linearGradient><linearGradient id="a"><stop offset="0" stop-color="#e730f4"/><stop offset="1" stop-color="#894bed"/></linearGradient><linearGradient xlink:href="#a" id="p" gradientUnits="userSpaceOnUse" x1="24.117" y1="4.931" x2="24.058" y2="42.556" gradientTransform="matrix(1.11943 0 0 1.12035 -2.944 -2.694)"/><linearGradient xlink:href="#c" id="q" gradientUnits="userSpaceOnUse" gradientTransform="matrix(1.11943 0 0 1.12035 -2.944 -2.694)" x1="26.073" y1="18.962" x2="34.374" y2="10.815"/><linearGradient xlink:href="#b" id="z" gradientUnits="userSpaceOnUse" x1="34.176" y1="10.276" x2="30.758" y2="13.691" gradientTransform="matrix(1.27935 0 0 1.12035 -8.235 -2.817)"/><linearGradient id="c"><stop offset="0" stop-opacity="0"/><stop offset="1" stop-opacity=".102"/></linearGradient><linearGradient xlink:href="#d" id="o" x1="126" y1="161.5" x2="194" y2="161.5" gradientUnits="userSpaceOnUse"/><linearGradient xlink:href="#g" id="y" x1="166" y1="133.472" x2="193" y2="133.472" gradientUnits="userSpaceOnUse"/><linearGradient id="h"><stop offset="0" stop-color="#e8b2ff"/><stop offset="1" stop-color="#bfa4fc" stop-opacity=".908"/></linearGradient><linearGradient id="n"><stop offset="0" stop-color="#fff"/><stop offset="1" stop-color="#b5b2b5"/></linearGradient><linearGradient xlink:href="#i" id="x" gradientUnits="userSpaceOnUse" gradientTransform="matrix(.31036 0 0 .31036 4.858 .855)" x1="14.128" y1="36.045" x2="14.128" y2="11.771"/><linearGradient id="i"><stop offset="0" stop-color="#1d1f23"/><stop offset=".361" stop-color="#515359"/><stop offset="1" stop-color="#484848"/></linearGradient><linearGradient xlink:href="#j" id="w" x1="64.483" y1="994.038" x2="64.483" y2="980.267" gradientUnits="userSpaceOnUse" gradientTransform="matrix(.31036 0 0 .31036 5.975 -295.924)"/><linearGradient id="j"><stop offset="0" stop-color="#a5a6ad"/><stop offset="1" stop-color="#ded7de"/></linearGradient><linearGradient xlink:href="#j" id="v" gradientUnits="userSpaceOnUse" gradientTransform="matrix(.31036 0 0 .31036 6.96 -295.984)" x1="64.483" y1="994.038" x2="64.483" y2="980.267"/><linearGradient xlink:href="#k" id="u" gradientUnits="userSpaceOnUse" gradientTransform="matrix(.31036 0 0 .31036 6.96 -295.984)" x1="40.574" y1="978.823" x2="40.574" y2="962.158"/><linearGradient id="k"><stop offset="0" stop-color="#ada6ad"/><stop offset="1" stop-color="#ded7de"/></linearGradient><linearGradient xlink:href="#k" id="t" gradientUnits="userSpaceOnUse" gradientTransform="matrix(.31036 0 0 .31036 5.975 -295.924)" x1="40.574" y1="978.823" x2="40.574" y2="962.158"/><linearGradient xlink:href="#l" id="s" gradientUnits="userSpaceOnUse" gradientTransform="matrix(.31036 0 0 .29096 4.858 -277.27)" x1="52.891" y1="995.124" x2="52.891" y2="980.244"/><linearGradient id="l"><stop offset="0" stop-color="#242424"/><stop offset="1" stop-color="#3a333a"/></linearGradient><linearGradient xlink:href="#m" id="r" x1="49.087" y1="22.098" x2="49.087" y2="7.789" gradientUnits="userSpaceOnUse" gradientTransform="matrix(.31036 0 0 .31036 4.858 .544)"/><linearGradient id="m"><stop offset="0" stop-color="#211721"/><stop offset="1" stop-color="#332f39"/></linearGradient><radialGradient xlink:href="#n" id="A" cx="-3.76" cy="21.906" fx="-3.76" fy="21.906" r="3.906" gradientUnits="userSpaceOnUse" gradientTransform="matrix(.23276 -.22218 .2228 .23342 5.153 1.848)"/></defs><g><path d="M6 2h22l13 13v31H6z" style="isolation:auto;mix-blend-mode:normal;marker:none" color="#000" overflow="visible" fill="url(#o)" paint-order="fill markers stroke"/><path style="isolation:auto;mix-blend-mode:normal;marker:none" d="M7 3h21l12 12v30H6.992z" color="#000" overflow="visible" fill="url(#p)" paint-order="fill markers stroke"/><path d="M7 3h21l12 12v30H6.992z" style="isolation:auto;mix-blend-mode:normal;marker:none" color="#000" overflow="visible" fill="url(#q)" paint-order="fill markers stroke"/><path d="M7 3v5.026L33 8l-5-5z" fill="url(#r)"/><path d="M7 8h26l5 5-31 .003z" fill="url(#s)"/><path d="M12 3l5 5h5l-5-5z" fill="url(#t)"/><path d="M23 3l5 5h4.88L28 3z" fill="url(#u)"/><path d="M28 8l-5 5h5.118l4.9-4.974z" fill="url(#v)"/><path d="M17 8l-5 5h5l5-5z" fill="url(#w)"/><path d="M8 3H7v10h6V8z" fill-opacity=".479"/><path d="M7 3l-.008 10H12V8z" fill="url(#x)"/><path d="M28 3l12 12-14 2z" fill="url(#y)" fill-rule="evenodd"/><path d="M28 3l12 12H28z" fill="url(#z)" fill-rule="evenodd"/><circle cx="9.194" cy="8.658" r="1.261" fill-opacity=".245"/><circle cx="9.194" cy="8.292" r="1.261" fill="url(#A)"/><path style="isolation:auto;mix-blend-mode:normal;marker:none" color="#000" display="block" overflow="visible" fill-opacity=".224" paint-order="fill markers stroke" d="M7 13h21v1H7z"/></g></svg>