<svg xmlns:osb="http://www.openswatchbook.org/uri/2009/osb" xmlns="http://www.w3.org/2000/svg" xmlns:xlink="http://www.w3.org/1999/xlink" height="24" viewBox="0 0 24 24" width="24"><title>Template icons dark</title><defs><linearGradient id="a"><stop offset="0" stop-color="#e1e3e7"/><stop offset=".21" stop-color="#dee1e4"/><stop offset=".38" stop-color="#f1f2f3"/><stop offset=".67" stop-color="#c2c6cd"/><stop offset="1" stop-color="#d7dadf"/></linearGradient><linearGradient xlink:href="#a" id="d" gradientUnits="userSpaceOnUse" x1="9.586" y1="4.485" x2="37.77" y2="43.886" gradientTransform="matrix(.66667 0 0 .66667 -59.833 -60)"/><linearGradient id="b"><stop offset="0" stop-color="#eeda60"/><stop offset="1" stop-color="#db9918"/></linearGradient><linearGradient id="c" osb:paint="solid"><stop offset="0" stop-color="#aaa"/></linearGradient></defs><g transform="translate(56 56)"><path d="M-54-56v24h8v-4h4v4h8v-24z" fill-opacity=".235"/><path d="M-53-55v22h6v-3h6v3h6v-22z" fill="#4e565a"/><path d="M-53-55v22h5v-4h8v4h5v-22z" fill="url(#d)"/><path style="isolation:auto;mix-blend-mode:normal;marker:none" d="M-47-37h6v2h-6z" color="#000" display="block" overflow="visible" fill="#dbb518"/><path style="isolation:auto;mix-blend-mode:normal;marker:none" d="M-48-37h8v1h-8z" color="#000" display="block" overflow="visible" fill-opacity=".33"/><path style="isolation:auto;mix-blend-mode:normal;marker:none" d="M-48-51h8v11h-8z" color="#000" display="block" overflow="visible" fill-opacity=".068"/><path style="isolation:auto;mix-blend-mode:normal;marker:none" d="M-48-39.969h8V-39l-8 .032z" color="#000" overflow="visible" fill="#fff" fill-opacity=".5" paint-order="markers stroke fill"/><rect width="1" height="1" x="-38.016" y="-36" rx=".667" ry=".667" fill="#454545"/><rect width="1" height="1" x="-51" y="-36" rx=".667" ry=".667" fill="#454545"/><rect width="1.035" height="1.035" x="-51" y="-44" rx=".69" ry=".69" fill="#454545"/><rect width="1" height="1" x="-38" y="-44" rx=".667" ry=".667" fill="#454545"/><rect width="1" height="1" x="-38" y="-53" rx=".667" ry=".667" fill="#454545"/><rect width="1" height="1" x="-51" y="-53" rx=".667" ry=".667" fill="#454545"/><path style="isolation:auto;mix-blend-mode:normal;marker:none" color="#000" display="block" overflow="visible" fill-opacity=".286" paint-order="markers stroke fill" d="M-48-51h8v1h-8z"/></g></svg>