<svg xmlns:osb="http://www.openswatchbook.org/uri/2009/osb" xmlns="http://www.w3.org/2000/svg" xmlns:xlink="http://www.w3.org/1999/xlink" height="96" viewBox="0 0 96 96" width="96"><title>Template icons dark</title><defs><linearGradient id="h" osb:paint="solid"><stop offset="0" stop-color="#afafaf"/></linearGradient><linearGradient id="g" osb:paint="solid"><stop offset="0" stop-opacity=".196"/></linearGradient><linearGradient id="f" osb:paint="solid"><stop offset="0" stop-color="#fff" stop-opacity=".782"/></linearGradient><linearGradient id="e" osb:paint="solid"><stop offset="0" stop-opacity=".078"/></linearGradient><linearGradient id="d" osb:paint="solid"><stop offset="0" stop-opacity=".157"/></linearGradient><linearGradient id="b"><stop offset="0" stop-color="#fff"/><stop offset="1" stop-color="#dfdfdf"/></linearGradient><linearGradient id="a"><stop offset="0" stop-color="#f0f0f0"/><stop offset="1" stop-color="#fff"/></linearGradient><linearGradient xlink:href="#a" id="k" gradientUnits="userSpaceOnUse" gradientTransform="matrix(2.19434 0 0 2.19615 107.378 109.173)" x1="24.117" y1="4.931" x2="24.058" y2="42.556"/><linearGradient xlink:href="#b" id="q" gradientUnits="userSpaceOnUse" gradientTransform="matrix(2.50782 0 0 2.19615 97.007 108.932)" x1="33.094" y1="10.504" x2="29.904" y2="14.147"/><linearGradient xlink:href="#c" id="n" gradientUnits="userSpaceOnUse" gradientTransform="matrix(2.19434 0 0 2.19615 107.378 109.173)" x1="23.981" y1="23.144" x2="45.855" y2="1.287"/><linearGradient xlink:href="#c" id="m" gradientUnits="userSpaceOnUse" gradientTransform="matrix(2.19434 0 0 2.19615 107.378 109.173)" x1="23.981" y1="23.144" x2="2.106" y2="45"/><linearGradient xlink:href="#c" id="l" gradientUnits="userSpaceOnUse" gradientTransform="matrix(2.19434 0 0 2.19615 107.378 109.173)" x1="23.981" y1="23.144" x2="45.855" y2="45"/><linearGradient id="c"><stop offset="0" stop-opacity="0"/><stop offset="1" stop-opacity=".102"/></linearGradient><linearGradient xlink:href="#c" id="o" gradientUnits="userSpaceOnUse" gradientTransform="matrix(2.19434 0 0 2.19615 107.378 109.173)" x1="23.981" y1="23.144" x2="2.106" y2="1.287"/><linearGradient xlink:href="#d" id="j" x1="126" y1="161.5" x2="194" y2="161.5" gradientUnits="userSpaceOnUse"/><linearGradient xlink:href="#e" id="i" x1="125" y1="161.5" x2="195" y2="161.5" gradientUnits="userSpaceOnUse"/><linearGradient xlink:href="#f" id="r" x1="127" y1="120.5" x2="169" y2="120.5" gradientUnits="userSpaceOnUse"/><linearGradient xlink:href="#g" id="p" x1="166" y1="133.472" x2="193" y2="133.472" gradientUnits="userSpaceOnUse"/></defs><path d="M125 118h44l26 26v61h-70z" style="isolation:auto;mix-blend-mode:normal;marker:none" color="#000" overflow="visible" fill="url(#i)" paint-order="fill markers stroke" transform="translate(-112 -112)"/><path style="isolation:auto;mix-blend-mode:normal;marker:none" d="M126 119h43l25 25v60h-68v-85z" color="#000" overflow="visible" fill="url(#j)" paint-order="fill markers stroke" transform="translate(-112 -112)"/><path d="M127 120h42l24 24v59h-66v-83z" style="isolation:auto;mix-blend-mode:normal;marker:none" color="#000" overflow="visible" fill="url(#k)" paint-order="fill markers stroke" transform="translate(-112 -112)"/><path style="isolation:auto;mix-blend-mode:normal;marker:none" d="M127 120h42l24 24v59h-66z" color="#000" overflow="visible" fill="url(#l)" paint-order="fill markers stroke" transform="translate(-112 -112)"/><path d="M127 120h42l24 24v59h-66z" style="isolation:auto;mix-blend-mode:normal;marker:none" color="#000" overflow="visible" fill="url(#m)" paint-order="fill markers stroke" transform="translate(-112 -112)"/><path style="isolation:auto;mix-blend-mode:normal;marker:none" d="M127 120h42l24 24v59h-66z" color="#000" overflow="visible" fill="url(#n)" paint-order="fill markers stroke" transform="translate(-112 -112)"/><path d="M127 120h42l24 24v59h-66z" style="isolation:auto;mix-blend-mode:normal;marker:none" color="#000" overflow="visible" fill="url(#o)" paint-order="fill markers stroke" transform="translate(-112 -112)"/><path d="M169 120l24 24-27 2.945z" fill="url(#p)" fill-rule="evenodd" transform="translate(-112 -112)"/><path d="M169 120l24 24h-24z" fill="url(#q)" fill-rule="evenodd" transform="translate(-112 -112)"/><path style="isolation:auto;mix-blend-mode:normal;marker:none" color="#000" display="block" overflow="visible" fill="url(#r)" paint-order="fill markers stroke" d="M127 120h42v1h-42z" transform="translate(-112 -112)"/></svg>