<svg xmlns:osb="http://www.openswatchbook.org/uri/2009/osb" xmlns="http://www.w3.org/2000/svg" xmlns:xlink="http://www.w3.org/1999/xlink" height="16" viewBox="0 0 16 16" width="16"><title>Template icons dark</title><defs><linearGradient id="i" osb:paint="solid"><stop offset="0" stop-color="#f17c00"/></linearGradient><linearGradient id="g" osb:paint="solid"><stop offset="0" stop-opacity=".196"/></linearGradient><linearGradient id="f" osb:paint="solid"><stop offset="0" stop-color="#fff" stop-opacity=".302"/></linearGradient><linearGradient id="e" osb:paint="solid"><stop offset="0" stop-opacity=".078"/></linearGradient><linearGradient id="d" osb:paint="solid"><stop offset="0" stop-opacity=".157"/></linearGradient><linearGradient id="b"><stop offset="0" stop-color="#ffa532"/><stop offset="1" stop-color="#ff8300"/></linearGradient><linearGradient id="a"><stop offset="0" stop-color="#ff8300"/><stop offset="1" stop-color="#ff5b00"/></linearGradient><linearGradient id="c"><stop offset="0" stop-opacity="0"/><stop offset="1" stop-opacity=".102"/></linearGradient><linearGradient id="h"><stop offset="0" stop-opacity="0"/><stop offset="1" stop-opacity=".083"/></linearGradient><linearGradient xlink:href="#i" id="j" x1="-70" y1="-64" x2="-58" y2="-64" gradientUnits="userSpaceOnUse"/></defs><g color="#000"><path style="isolation:auto;mix-blend-mode:normal;marker:none" d="M-70-71v14h12v-10l-4-4zm1 1h7v3h3v9h-10z" overflow="visible" fill="url(#j)" paint-order="fill markers stroke" transform="translate(72 72)"/><path d="M-69-70h7l3 3v9h-10z" style="isolation:auto;mix-blend-mode:normal;marker:none" overflow="visible" opacity=".41" fill="url(#j)" paint-order="fill markers stroke" transform="translate(72 72)"/><path style="isolation:auto;mix-blend-mode:normal;marker:none" d="M12 8a4 4 0 0 1-2.47 3.696 4 4 0 0 1-4.358-.868 4 4 0 0 1-.868-4.359A4 4 0 0 1 8 4v4z" display="block" overflow="visible" fill="#fff" paint-order="fill markers stroke"/></g></svg>