<svg xmlns:osb="http://www.openswatchbook.org/uri/2009/osb" xmlns="http://www.w3.org/2000/svg" height="16" viewBox="0 0 16 16" width="16"><title>Template icons dark</title><defs><linearGradient id="h" osb:paint="solid"><stop offset="0" stop-color="#44e6b4"/></linearGradient><linearGradient id="g" osb:paint="solid"><stop offset="0" stop-opacity=".196"/></linearGradient><linearGradient id="f" osb:paint="solid"><stop offset="0" stop-color="#fff" stop-opacity=".469"/></linearGradient><linearGradient id="e" osb:paint="solid"><stop offset="0" stop-opacity=".078"/></linearGradient><linearGradient id="d" osb:paint="solid"><stop offset="0" stop-opacity=".157"/></linearGradient><linearGradient id="b"><stop offset="0" stop-color="#92cbd1"/><stop offset="1" stop-color="#41bda9"/></linearGradient><linearGradient id="a"><stop offset="0" stop-color="#44e9b3"/><stop offset="1" stop-color="#43a8ce"/></linearGradient><linearGradient id="c"><stop offset="0" stop-opacity="0"/><stop offset="1" stop-opacity=".102"/></linearGradient></defs><path style="isolation:auto;mix-blend-mode:normal;marker:none" d="M14.118 2.12l-.101 7.954c-.026 2.05-1.774 2.706-2.69 2.706-2.677 0-2.639-3.182 0-3.229.554 0 1.623-.107 1.64-.763 0 0 .118-3.034-.026-3.425-.39-.062-6.729 1.767-6.914 1.994-.02.535 0 4.869 0 4.869 0 2.029-1.774 2.705-2.69 2.705-2.697 0-2.639-3.18 0-3.228.554 0 1.353-.146 1.486-.619V3.901c0-.353.236-.665.572-.774l7.58-2.152c1.143 0 .925.689 1.143 1.145z" color="#000" overflow="visible" fill="#44e6b4"/></svg>