<svg xmlns:osb="http://www.openswatchbook.org/uri/2009/osb" xmlns="http://www.w3.org/2000/svg" xmlns:xlink="http://www.w3.org/1999/xlink" height="32" viewBox="0 0 32 32" width="32"><title>Template icons dark</title><defs><linearGradient xlink:href="#a" id="d" gradientUnits="userSpaceOnUse" x1="9.586" y1="4.485" x2="37.77" y2="43.886" gradientTransform="matrix(.66667 0 0 .66667 -31.833 -32)"/><linearGradient id="a"><stop offset="0" stop-color="#e1e3e7"/><stop offset=".21" stop-color="#dee1e4"/><stop offset=".38" stop-color="#f1f2f3"/><stop offset=".67" stop-color="#c2c6cd"/><stop offset="1" stop-color="#d7dadf"/></linearGradient><linearGradient id="b"><stop offset="0" stop-color="#eeda60"/><stop offset="1" stop-color="#db9918"/></linearGradient><linearGradient id="c" osb:paint="solid"><stop offset="0" stop-color="#aaa"/></linearGradient></defs><path d="M4 1v30h7l1-4h8l1.094 4H28V1z" fill-opacity=".235"/><path d="M5 2v28h6l1-3h8l1.094 3H27V2z" fill="#565e66"/><path d="M-26-29v26h4l1-3h10l1 3h4v-26z" fill="url(#d)" transform="translate(32 32)"/><path d="M7.5 4a.499.499 0 1 0 0 1 .499.499 0 1 0 0-1zm17 0a.499.499 0 1 0 0 1 .499.499 0 1 0 0-1zM7.518 15a.516.516 0 1 0 0 1.035.516.516 0 1 0 0-1.035zM24.5 15a.499.499 0 1 0 0 1 .499.499 0 1 0 0-1zm-17 11a.499.499 0 1 0 0 1 .499.499 0 1 0 0-1zm16.984 0a.499.499 0 1 0 0 1 .499.499 0 1 0 0-1z" fill="#454545"/><path d="M11 26l-.637 2h11.302L21 26z" fill="#6c7587" fill-rule="evenodd"/><path style="isolation:auto;mix-blend-mode:normal;marker:none" d="M11 26h10l.33 1H10.646z" color="#000" display="block" overflow="visible" fill-opacity=".33"/><path style="isolation:auto;mix-blend-mode:normal;marker:none" d="M10 7h12v15H10z" color="#000" display="block" overflow="visible" fill-opacity=".068"/><path style="isolation:auto;mix-blend-mode:normal;marker:none" d="M10 22h12v.969L10 23z" color="#000" overflow="visible" fill="#fff" fill-opacity=".5" paint-order="markers stroke fill"/><path style="isolation:auto;mix-blend-mode:normal;marker:none" color="#000" display="block" overflow="visible" fill="#dbb518" d="M12 26h8v2h-8z"/><path style="isolation:auto;mix-blend-mode:normal;marker:none" color="#000" display="block" overflow="visible" fill-opacity=".286" paint-order="markers stroke fill" d="M10 7h12v1H10z"/></svg>