<svg xmlns:osb="http://www.openswatchbook.org/uri/2009/osb" xmlns="http://www.w3.org/2000/svg" xmlns:xlink="http://www.w3.org/1999/xlink" height="128" viewBox="0 0 128 128" width="128"><title>Template icons dark</title><defs><linearGradient id="i" osb:paint="solid"><stop offset="0" stop-color="#34beff"/></linearGradient><linearGradient id="g" osb:paint="solid"><stop offset="0" stop-opacity=".196"/></linearGradient><linearGradient id="f" osb:paint="solid"><stop offset="0" stop-color="#fff" stop-opacity=".302"/></linearGradient><linearGradient id="e" osb:paint="solid"><stop offset="0" stop-opacity=".078"/></linearGradient><linearGradient id="d" osb:paint="solid"><stop offset="0" stop-opacity=".157"/></linearGradient><linearGradient id="b"><stop offset="0" stop-color="#72d2ff"/><stop offset="1" stop-color="#15b5ff"/></linearGradient><linearGradient id="a"><stop offset="0" stop-color="#15b5ff"/><stop offset="1" stop-color="#1385ff"/></linearGradient><linearGradient id="c"><stop offset="0" stop-opacity="0"/><stop offset="1" stop-opacity=".102"/></linearGradient><linearGradient gradientTransform="translate(58.667 56.167) scale(1.33333)" xlink:href="#e" id="j" x1="125" y1="161.5" x2="195" y2="161.5" gradientUnits="userSpaceOnUse"/><linearGradient gradientTransform="translate(58.667 56.167) scale(1.33333)" xlink:href="#d" id="k" x1="126" y1="161.5" x2="194" y2="161.5" gradientUnits="userSpaceOnUse"/><linearGradient xlink:href="#a" id="l" gradientUnits="userSpaceOnUse" gradientTransform="matrix(2.92579 0 0 2.9282 201.838 201.731)" x1="24.117" y1="4.931" x2="24.058" y2="42.556"/><linearGradient xlink:href="#c" id="m" gradientUnits="userSpaceOnUse" gradientTransform="matrix(2.92579 0 0 2.9282 201.838 201.731)" x1="23.981" y1="23.144" x2="45.855" y2="45"/><linearGradient xlink:href="#c" id="n" gradientUnits="userSpaceOnUse" gradientTransform="matrix(2.92579 0 0 2.9282 201.838 201.731)" x1="23.981" y1="23.144" x2="2.106" y2="45"/><linearGradient xlink:href="#c" id="o" gradientUnits="userSpaceOnUse" gradientTransform="matrix(2.92579 0 0 2.9282 201.838 201.731)" x1="23.981" y1="23.144" x2="45.855" y2="1.287"/><linearGradient xlink:href="#c" id="p" gradientUnits="userSpaceOnUse" gradientTransform="matrix(2.92579 0 0 2.9282 201.838 201.731)" x1="23.981" y1="23.144" x2="2.106" y2="1.287"/><linearGradient gradientTransform="translate(58.667 56.167) scale(1.33333)" xlink:href="#f" id="q" x1="127" y1="120.5" x2="169" y2="120.5" gradientUnits="userSpaceOnUse"/><linearGradient gradientTransform="translate(58.667 56.167) scale(1.33333)" xlink:href="#g" id="r" x1="166" y1="133.472" x2="193" y2="133.472" gradientUnits="userSpaceOnUse"/><linearGradient xlink:href="#b" id="s" gradientUnits="userSpaceOnUse" gradientTransform="matrix(3.34375 0 0 2.9282 188.009 201.41)" x1="33.094" y1="10.504" x2="29.904" y2="14.147"/><linearGradient id="h"><stop offset="0" stop-opacity="0"/><stop offset="1" stop-opacity=".083"/></linearGradient><linearGradient gradientTransform="matrix(2 0 0 1.98214 -24.063 -50.75)" xlink:href="#h" id="t" x1="127" y1="161.5" x2="148.031" y2="161.5" gradientUnits="userSpaceOnUse"/></defs><g transform="translate(-208 -208)"><path d="M226 214h58l34 34v81h-92z" style="isolation:auto;mix-blend-mode:normal;marker:none" color="#000" overflow="visible" fill="url(#j)" paint-order="fill markers stroke"/><path style="isolation:auto;mix-blend-mode:normal;marker:none" d="M227 215h57l33 33v80h-90z" color="#000" overflow="visible" fill="url(#k)" paint-order="fill markers stroke"/><path d="M228 216h56l32 32v79h-88V216z" style="isolation:auto;mix-blend-mode:normal;marker:none" color="#000" overflow="visible" fill="url(#l)" paint-order="fill markers stroke"/><path style="isolation:auto;mix-blend-mode:normal;marker:none" d="M228 216h56l32 32v79h-88z" color="#000" overflow="visible" fill="url(#m)" paint-order="fill markers stroke"/><path d="M228 216h56l32 32v79h-88z" style="isolation:auto;mix-blend-mode:normal;marker:none" color="#000" overflow="visible" fill="url(#n)" paint-order="fill markers stroke"/><path style="isolation:auto;mix-blend-mode:normal;marker:none" d="M228 216h56l32 32v79h-88z" color="#000" overflow="visible" fill="url(#o)" paint-order="fill markers stroke"/><path d="M228 216h56l32 32v79h-88z" style="isolation:auto;mix-blend-mode:normal;marker:none" color="#000" overflow="visible" fill="url(#p)" paint-order="fill markers stroke"/><path style="isolation:auto;mix-blend-mode:normal;marker:none" d="M228 216h56v1h-56z" color="#000" display="block" overflow="visible" fill="url(#q)" paint-order="fill markers stroke"/><path d="M284 216l32 32-36 4z" fill="url(#r)" fill-rule="evenodd"/><path d="M284 216l32 32h-32z" fill="url(#s)" fill-rule="evenodd"/><path style="isolation:auto;mix-blend-mode:normal;marker:none" d="M228 216h44v111h-44V216z" color="#000" overflow="visible" fill="url(#t)" paint-order="fill markers stroke"/><rect ry="1" y="261" x="244" height="5" width="56" style="isolation:auto;mix-blend-mode:normal;marker:none" color="#000" display="block" overflow="visible" fill="#101fb8" fill-opacity=".344"/><rect style="isolation:auto;mix-blend-mode:normal;marker:none" width="56" height="5" x="244" y="260" ry="1" color="#000" display="block" overflow="visible" fill="#fff"/><rect style="isolation:auto;mix-blend-mode:normal;marker:none" width="56" height="5" x="244" y="273" ry="1" color="#000" display="block" overflow="visible" fill="#101fb8" fill-opacity=".344"/><rect ry="1" y="272" x="244" height="5" width="56" style="isolation:auto;mix-blend-mode:normal;marker:none" color="#000" display="block" overflow="visible" fill="#fff"/><rect ry="1" y="285" x="244" height="5" width="56" style="isolation:auto;mix-blend-mode:normal;marker:none" color="#000" display="block" overflow="visible" fill="#101fb8" fill-opacity=".344"/><rect style="isolation:auto;mix-blend-mode:normal;marker:none" width="56" height="5" x="244" y="284" ry="1" color="#000" display="block" overflow="visible" fill="#fff"/><rect style="isolation:auto;mix-blend-mode:normal;marker:none" width="56" height="5" x="244" y="297" ry="1" color="#000" display="block" overflow="visible" fill="#101fb8" fill-opacity=".344"/><rect ry="1" y="296" x="244" height="5" width="56" style="isolation:auto;mix-blend-mode:normal;marker:none" color="#000" display="block" overflow="visible" fill="#fff"/></g></svg>