<svg xmlns:osb="http://www.openswatchbook.org/uri/2009/osb" xmlns="http://www.w3.org/2000/svg" xmlns:xlink="http://www.w3.org/1999/xlink" height="16" viewBox="0 0 16 16" width="16"><title>Template icons dark</title><defs><linearGradient id="a" osb:paint="solid"><stop offset="0" stop-color="#afafaf"/></linearGradient><linearGradient xlink:href="#a" id="b" x1="37" y1="-438" x2="49" y2="-438" gradientUnits="userSpaceOnUse"/></defs><g color="#000" fill="url(#b)" transform="translate(-1 445)"><path style="isolation:auto;mix-blend-mode:normal;marker:none" d="M3-444v15h2l1-1h6l1 1h2v-15zm1 1h10v13H4z" display="block" overflow="visible" filter="url(#filter7554)"/><path style="isolation:auto;mix-blend-mode:normal;marker:none" d="M6-441h6v7H6z" display="block" overflow="visible" opacity=".604" filter="url(#filter7554)"/><path style="isolation:auto;mix-blend-mode:normal;marker:none" display="block" overflow="visible" opacity=".525" filter="url(#filter7554)" d="M6-431h6v1H6z"/><path style="isolation:auto;mix-blend-mode:normal;marker:none" display="block" overflow="visible" filter="url(#filter7554)" d="M4-433h1v1H4zM13-433h1v1h-1zM13-442h1v1h-1zM4-442h1v1H4zM4-438h1v1H4zM13-438h1v1h-1z"/></g></svg>