<svg xmlns:osb="http://www.openswatchbook.org/uri/2009/osb" xmlns="http://www.w3.org/2000/svg" xmlns:xlink="http://www.w3.org/1999/xlink" height="16" viewBox="0 0 16 16" width="16"><title>Template icons dark</title><defs><linearGradient id="a" osb:paint="solid"><stop offset="0" stop-color="#afafaf"/></linearGradient><linearGradient xlink:href="#a" id="b" x1="37" y1="-438" x2="49" y2="-438" gradientUnits="userSpaceOnUse"/></defs><path d="M26-445l-2.5 4H25v5h-3v-1.272A2 2 0 0 0 23-439a2 2 0 1 0-3 1.73v1.27c0 2 2 2 2 2h3v1.271A2 2 0 0 0 24-431a2 2 0 1 0 3-1.73V-434h3s2 0 2-2v-1s1.125-.188 1-1v-2c.125-1.125-1-1-1-1h-2c-1.062 0-1 1-1 1v2c0 1 1 1 1 1v1h-3v-5h1.5z" style="marker:none" fill="url(#b)" fill-rule="evenodd" filter="url(#filter7554)" transform="translate(-18 445)"/></svg>