<svg xmlns:osb="http://www.openswatchbook.org/uri/2009/osb" xmlns="http://www.w3.org/2000/svg" xmlns:xlink="http://www.w3.org/1999/xlink" height="24" viewBox="0 0 24 24" width="24"><title>Template icons dark</title><defs><linearGradient id="h" osb:paint="solid"><stop offset="0" stop-color="#44e6b4"/></linearGradient><linearGradient id="g" osb:paint="solid"><stop offset="0" stop-opacity=".196"/></linearGradient><linearGradient id="f" osb:paint="solid"><stop offset="0" stop-color="#fff" stop-opacity=".469"/></linearGradient><linearGradient id="e" osb:paint="solid"><stop offset="0" stop-opacity=".078"/></linearGradient><linearGradient id="d" osb:paint="solid"><stop offset="0" stop-opacity=".157"/></linearGradient><linearGradient id="b"><stop offset="0" stop-color="#92cbd1"/><stop offset="1" stop-color="#41bda9"/></linearGradient><linearGradient id="a"><stop offset="0" stop-color="#44e9b3"/><stop offset="1" stop-color="#43a8ce"/></linearGradient><linearGradient id="c"><stop offset="0" stop-opacity="0"/><stop offset="1" stop-opacity=".102"/></linearGradient><linearGradient xlink:href="#h" id="i" x1="-70.664" y1="-64.047" x2="-57.882" y2="-64.047" gradientUnits="userSpaceOnUse"/><linearGradient xlink:href="#h" id="j" x1="-70.664" y1="-64.047" x2="-57.882" y2="-64.047" gradientUnits="userSpaceOnUse"/><linearGradient xlink:href="#h" id="k" x1="-70.664" y1="-64.047" x2="-57.882" y2="-64.047" gradientUnits="userSpaceOnUse"/></defs><g color="#000"><path style="isolation:auto;mix-blend-mode:normal;marker:none;font-variant-east_asian:normal" d="M-36.03-51.385l-.129 10.233c-.033 2.637-2.282 3.482-3.461 3.482-3.444 0-3.395-4.093 0-4.154.713 0 2.088-.139 2.11-.982 0 0 .153-3.903-.033-4.406-.503-.08-8.657 2.273-8.896 2.564-.026.689 0 6.265 0 6.265 0 2.61-2.282 3.48-3.461 3.48-3.47 0-3.395-4.09 0-4.152.714 0 1.74-.189 1.913-.797v-9.242c0-.454.303-.855.735-.996l9.752-2.769c1.47 0 1.191.887 1.47 1.474z" overflow="visible" fill="url(#i)" transform="translate(56 56)"/><path style="isolation:auto;mix-blend-mode:normal;marker:none" d="M-57.882-69.88l-.101 7.954c-.026 2.05-1.774 2.706-2.69 2.706-2.677 0-2.639-3.182 0-3.229.554 0 1.623-.107 1.64-.763 0 0 .118-3.034-.026-3.425-.39-.062-6.729 1.767-6.914 1.994-.02.535 0 4.869 0 4.869 0 2.029-1.774 2.705-2.69 2.705-2.697 0-2.639-3.18 0-3.228.554 0 1.353-.146 1.486-.619v-7.183c0-.353.236-.665.572-.774l7.58-2.152c1.143 0 .925.689 1.143 1.145z" overflow="visible" fill="url(#i)" transform="translate(56 56)"/><path style="isolation:auto;mix-blend-mode:normal;marker:none" d="M-57.882-69.88l-.101 7.954c-.026 2.05-1.774 2.706-2.69 2.706-2.677 0-2.639-3.182 0-3.229.554 0 1.623-.107 1.64-.763 0 0 .118-3.034-.026-3.425-.39-.062-6.729 1.767-6.914 1.994-.02.535 0 4.869 0 4.869 0 2.029-1.774 2.705-2.69 2.705-2.697 0-2.639-3.18 0-3.228.554 0 1.353-.146 1.486-.619v-7.183c0-.353.236-.665.572-.774l7.58-2.152c1.143 0 .925.689 1.143 1.145z" overflow="visible" fill="url(#j)" transform="translate(56 56)"/><path style="isolation:auto;mix-blend-mode:normal;marker:none" d="M-57.882-69.88l-.101 7.954c-.026 2.05-1.774 2.706-2.69 2.706-2.677 0-2.639-3.182 0-3.229.554 0 1.623-.107 1.64-.763 0 0 .118-3.034-.026-3.425-.39-.062-6.729 1.767-6.914 1.994-.02.535 0 4.869 0 4.869 0 2.029-1.774 2.705-2.69 2.705-2.697 0-2.639-3.18 0-3.228.554 0 1.353-.146 1.486-.619v-7.183c0-.353.236-.665.572-.774l7.58-2.152c1.143 0 .925.689 1.143 1.145z" overflow="visible" fill="url(#k)" transform="translate(56 56)"/></g></svg>