<svg xmlns:osb="http://www.openswatchbook.org/uri/2009/osb" xmlns="http://www.w3.org/2000/svg" xmlns:xlink="http://www.w3.org/1999/xlink" height="24" viewBox="0 0 24 24" width="24"><title>Template icons dark</title><defs><linearGradient id="i" osb:paint="solid"><stop offset="0" stop-color="#f9a675"/></linearGradient><linearGradient id="g" osb:paint="solid"><stop offset="0" stop-opacity=".196"/></linearGradient><linearGradient id="f" osb:paint="solid"><stop offset="0" stop-color="#fff" stop-opacity=".302"/></linearGradient><linearGradient id="e" osb:paint="solid"><stop offset="0" stop-opacity=".078"/></linearGradient><linearGradient id="d" osb:paint="solid"><stop offset="0" stop-opacity=".157"/></linearGradient><linearGradient id="b"><stop offset="0" stop-color="#f8c6c6"/><stop offset="1" stop-color="#f8a28d"/></linearGradient><linearGradient id="a"><stop offset="0" stop-color="#fa8484"/><stop offset="1" stop-color="#f9a874"/></linearGradient><linearGradient id="c"><stop offset="0" stop-opacity="0"/><stop offset="1" stop-opacity=".102"/></linearGradient><linearGradient id="h"><stop offset="0" stop-opacity="0"/><stop offset="1" stop-opacity=".083"/></linearGradient><linearGradient xlink:href="#i" id="j" x1="-38.114" y1="-32.117" x2="-26.114" y2="-32.117" gradientUnits="userSpaceOnUse"/></defs><path d="M-53-54l1.5 18 7.5 3 7.465-3.035L-35-54zm3.751 4.5h10.588l-.154 2.055-8.185-.033V-45h8.09l-.59 6-4.5 1.5-4.5-1.5v-3h1.5v1.5l3 .59 3-.59v-3h-7.5z" fill="url(#j)" transform="translate(56 56)"/><path d="M4.54 20l7.5 3 .01-3.003-.01-1.497-4.5-1.5v-3h1.5v1.5l3 .59V12.5h-4.5l-.75-6h5.25V2h-9zm4.5-11.478V11h3V8.555z" style="font-variant-east_asian:normal" fill="#d0d0d0"/></svg>