<svg xmlns:osb="http://www.openswatchbook.org/uri/2009/osb" xmlns="http://www.w3.org/2000/svg" xmlns:xlink="http://www.w3.org/1999/xlink" height="24" viewBox="0 0 24 24" width="24"><title>Template icons dark</title><defs><linearGradient id="i" osb:paint="solid"><stop offset="0" stop-color="#dc88fe"/></linearGradient><linearGradient id="h" osb:paint="solid"><stop offset="0" stop-color="#59b5ff"/></linearGradient><linearGradient id="g" osb:paint="solid"><stop offset="0" stop-opacity=".196"/></linearGradient><linearGradient id="f" osb:paint="solid"><stop offset="0" stop-color="#fff" stop-opacity=".052"/></linearGradient><linearGradient id="e" osb:paint="solid"><stop offset="0" stop-opacity=".078"/></linearGradient><linearGradient id="d" osb:paint="solid"><stop offset="0" stop-opacity=".157"/></linearGradient><linearGradient id="b"><stop offset="0" stop-color="#525764"/><stop offset="1" stop-color="#464c57"/></linearGradient><linearGradient id="a"><stop offset="0" stop-color="#494f5a"/><stop offset="1" stop-color="#494e5a"/></linearGradient><linearGradient id="c"><stop offset="0" stop-opacity="0"/><stop offset="1" stop-opacity=".102"/></linearGradient><linearGradient xlink:href="#h" id="k" x1="-63" y1="-64" x2="-57" y2="-64" gradientUnits="userSpaceOnUse"/><linearGradient xlink:href="#i" id="j" x1="-38.932" y1="-32" x2="-32.959" y2="-32" gradientUnits="userSpaceOnUse"/></defs><g style="line-height:1000%" font-size="11.959" font-family="Monaco" letter-spacing="0" word-spacing="0" fill="#fff" fill-opacity="1" stroke-width="2.242" font-weight="400"><path style="-inkscape-font-specification:Monaco;font-variant-east_asian:normal" d="M-36.008-36.627v2.617L-38.932-32l2.924 1.917v2.617c0 .654.66 1.309 1.32 1.309h1.98v-.655h-1.98a.645.645 0 0 1-.66-.654v-3.272l-1.98-1.308 1.98-1.31v-3.277c0-.375.21-.648.654-.648h1.987v-.655h-1.98c-.66 0-1.321.655-1.321 1.309z" fill="url(#j)" transform="matrix(1.5147 0 0 1.52822 60.541 60.974)"/><path d="M-28.086-36.627v2.617l2.924 2.01-2.924 1.917v2.617c0 .654-.66 1.309-1.32 1.309h-1.98v-.655h1.98c.398 0 .66-.307.66-.654v-3.272l1.98-1.308-1.98-1.31v-3.277c0-.375-.21-.648-.654-.648h-1.987v-.655h1.98c.661 0 1.321.655 1.321 1.309z" style="-inkscape-font-specification:Monaco" fill="url(#k)" transform="matrix(1.5147 0 0 1.52822 60.541 60.974)"/></g></svg>