<svg xmlns:osb="http://www.openswatchbook.org/uri/2009/osb" xmlns="http://www.w3.org/2000/svg" xmlns:xlink="http://www.w3.org/1999/xlink" height="24" viewBox="0 0 24 24" width="24"><title>Template icons dark</title><defs><linearGradient id="g" osb:paint="solid"><stop offset="0" stop-opacity=".196"/></linearGradient><linearGradient id="f" osb:paint="solid"><stop offset="0" stop-color="#fff" stop-opacity=".208"/></linearGradient><linearGradient id="e" osb:paint="solid"><stop offset="0" stop-opacity=".078"/></linearGradient><linearGradient id="d" osb:paint="solid"><stop offset="0" stop-opacity=".157"/></linearGradient><linearGradient id="b"><stop offset="0" stop-color="#bf72f7"/><stop offset="1" stop-color="#ae37d5"/></linearGradient><linearGradient id="a"><stop offset="0" stop-color="#e730f4"/><stop offset="1" stop-color="#894bed"/></linearGradient><linearGradient id="c"><stop offset="0" stop-opacity="0"/><stop offset="1" stop-opacity=".102"/></linearGradient><linearGradient id="h"><stop offset="0" stop-color="#e8b2ff"/><stop offset="1" stop-color="#bfa4fc" stop-opacity=".908"/></linearGradient><linearGradient gradientTransform="matrix(1.5 0 0 1.5 4 3.5)" xlink:href="#h" id="o" x1="-38" y1="-39" x2="-26.239" y2="-25" gradientUnits="userSpaceOnUse"/><linearGradient id="n"><stop offset="0" stop-color="#fff"/><stop offset="1" stop-color="#b5b2b5"/></linearGradient><linearGradient id="i"><stop offset="0" stop-color="#1d1f23"/><stop offset=".361" stop-color="#515359"/><stop offset="1" stop-color="#484848"/></linearGradient><linearGradient id="j"><stop offset="0" stop-color="#a5a6ad"/><stop offset="1" stop-color="#ded7de"/></linearGradient><linearGradient id="k"><stop offset="0" stop-color="#ada6ad"/><stop offset="1" stop-color="#ded7de"/></linearGradient><linearGradient id="l"><stop offset="0" stop-color="#242424"/><stop offset="1" stop-color="#3a333a"/></linearGradient><linearGradient id="m"><stop offset="0" stop-color="#211721"/><stop offset="1" stop-color="#332f39"/></linearGradient></defs><path style="isolation:auto;mix-blend-mode:normal;marker:none" d="M-53-55v21h18v-21zm1 3h2v3h-2zm14 0h2v3h-2zm-11 0h10v7h-10zm-3 4h2v3h-2zm14 0h2v3h-2zm-14 4h2v3h-2zm14 0h2v3h-2zm-11 1h10v7h-10zm-3 3h2v3h-2zm14 0h2v4h-2z" color="#000" display="block" overflow="visible" fill="url(#o)" paint-order="fill markers stroke" transform="translate(56 56)"/></svg>