<svg xmlns:osb="http://www.openswatchbook.org/uri/2009/osb" xmlns="http://www.w3.org/2000/svg" xmlns:xlink="http://www.w3.org/1999/xlink" height="32" viewBox="0 0 32 32" width="32"><title>Template icons dark</title><defs><linearGradient id="i" osb:paint="solid"><stop offset="0" stop-color="#f17c00"/></linearGradient><linearGradient id="g" osb:paint="solid"><stop offset="0" stop-opacity=".196"/></linearGradient><linearGradient id="f" osb:paint="solid"><stop offset="0" stop-color="#fff" stop-opacity=".302"/></linearGradient><linearGradient id="e" osb:paint="solid"><stop offset="0" stop-opacity=".078"/></linearGradient><linearGradient id="d" osb:paint="solid"><stop offset="0" stop-opacity=".157"/></linearGradient><linearGradient id="b"><stop offset="0" stop-color="#ffa532"/><stop offset="1" stop-color="#ff8300"/></linearGradient><linearGradient id="a"><stop offset="0" stop-color="#ff8300"/><stop offset="1" stop-color="#ff5b00"/></linearGradient><linearGradient id="c"><stop offset="0" stop-opacity="0"/><stop offset="1" stop-opacity=".102"/></linearGradient><linearGradient xlink:href="#a" id="k" gradientUnits="userSpaceOnUse" gradientTransform="matrix(.74629 0 0 .7469 -33.962 -33.796)" x1="24.117" y1="4.931" x2="24.058" y2="42.556"/><linearGradient xlink:href="#b" id="n" gradientUnits="userSpaceOnUse" gradientTransform="matrix(.8529 0 0 .7469 -37.49 -33.878)" x1="28.713" y1="15.703" x2="25.196" y2="18.581"/><linearGradient xlink:href="#d" id="j" x1="126" y1="161.5" x2="194" y2="161.5" gradientUnits="userSpaceOnUse"/><linearGradient xlink:href="#g" id="m" x1="166" y1="133.472" x2="193" y2="133.472" gradientUnits="userSpaceOnUse"/><linearGradient id="h"><stop offset="0" stop-opacity="0"/><stop offset="1" stop-opacity=".083"/></linearGradient><linearGradient gradientTransform="matrix(.5 0 0 .5 -90.016 -97.288)" xlink:href="#h" id="l" x1="127" y1="161.5" x2="148.031" y2="161.5" gradientUnits="userSpaceOnUse"/></defs><path style="isolation:auto;mix-blend-mode:normal;marker:none" d="M-28-31h15l9 9v21h-24z" color="#000" overflow="visible" fill="url(#j)" paint-order="fill markers stroke" transform="translate(32 32)"/><path d="M-27-30h14l8 8v20h-22z" style="isolation:auto;mix-blend-mode:normal;marker:none" color="#000" overflow="visible" fill="url(#k)" paint-order="fill markers stroke" transform="translate(32 32)"/><path style="isolation:auto;mix-blend-mode:normal;marker:none" d="M-27-30h11v28h-11v-28z" color="#000" overflow="visible" fill="url(#l)" paint-order="fill markers stroke" transform="translate(32 32)"/><path d="M-13-30l8 8v1h-9v-9z" fill="url(#m)" fill-rule="evenodd" transform="translate(32 32)"/><path d="M-13-30l8 8h-8z" fill="url(#n)" fill-rule="evenodd" transform="translate(32 32)"/><path style="isolation:auto;mix-blend-mode:normal;marker:none" d="M24 18a8 8 0 0 1-4.939 7.391 8 8 0 0 1-8.718-1.734 8 8 0 0 1-1.734-8.718A8 8 0 0 1 16 10v8z" color="#000" display="block" overflow="visible" fill="#7d1005" fill-opacity=".198" paint-order="fill markers stroke"/><path style="isolation:auto;mix-blend-mode:normal;marker:none" d="M23 18a7 7 0 0 1-4.321 6.467 7 7 0 0 1-7.629-1.517 7 7 0 0 1-1.517-7.629A7 7 0 0 1 16 11v7z" color="#000" display="block" overflow="visible" fill="#fff" paint-order="fill markers stroke"/><path style="isolation:auto;mix-blend-mode:normal;marker:none" d="M16 11a7 7 0 0 1 7 7h-7z" color="#000" display="block" overflow="visible" fill="#fff" fill-opacity=".354" paint-order="fill markers stroke"/></svg>